Coordinates
version=1
nRows=8
nColumns=36
inDegrees=yes

Units are S.I. units (second, meters, Newtons, ...)
If the header above contains a line with 'inDegrees', this indicates whether rotational values are in degrees (yes) or radians (no).

endheader
time	pelvis_tilt	pelvis_list	pelvis_rotation	pelvis_tx	pelvis_ty	pelvis_tz	hip_flexion_r	hip_adduction_r	hip_rotation_r	knee_angle_r	knee_angle_r_beta	ankle_angle_r	subtalar_angle_r	mtp_angle_r	hip_flexion_l	hip_adduction_l	hip_rotation_l	knee_angle_l	knee_angle_l_beta	ankle_angle_l	subtalar_angle_l	mtp_angle_l	lumbar_extension	lumbar_bending	lumbar_rotation	arm_flex_r	arm_add_r	arm_rot_r	elbow_flex_r	pro_sup_r	arm_flex_l	arm_add_l	arm_rot_l	elbow_flex_l	pro_sup_l
     -0.55000000	     -0.95033724	      5.72880661	     -2.12878807	     -0.55092852	      1.12278252	     -0.21790614	     -1.21130534	     -6.15822581	     -5.16519942	     51.49108788	      0.89868902	     -5.48394900	     -6.23890921	     -7.49971923	     20.75485569	      9.45420365	     -0.03587427	     21.06400324	      0.36763621	      1.66202867	    -15.59427058	     -7.49971923	     -8.35412380	     -8.22730198	      0.70227237	     -7.55200569	     -3.59290170	    -10.46235328	     39.55634484	     94.42328756	     -6.77510793	     -4.75161574	    -16.23575828	     31.63526280	     97.85800866
     -0.54000000	     -0.54076496	      5.79984035	     -2.19150991	     -0.53949865	      1.12535426	     -0.21764744	      0.01313108	     -6.52342453	     -4.76978628	     54.12720821	      0.94469800	     -5.30994470	     -7.27613946	     -7.49973064	     19.29276092	      9.59683803	     -0.20302379	     20.44743832	      0.35687512	      2.07687352	    -15.44527405	     -7.49973064	     -8.93776026	     -8.37539021	      0.64043092	     -7.37381338	     -3.45312741	    -10.36633439	     38.82865585	     93.12316617	     -6.63828934	     -4.78291352	    -16.10665116	     31.53466869	     96.39563392
     -0.53000000	     -0.05450543	      5.76551011	     -2.09869140	     -0.52845653	      1.12718563	     -0.21725748	      1.19355477	     -6.73211301	     -4.49892899	     56.68913474	      0.98941205	     -4.52971169	     -8.44964886	     -7.49978111	     17.73563536	      9.64960496	     -0.27552289	     19.82253678	      0.34596853	      2.83943725	    -14.98889258	     -7.49978111	     -9.71982482	     -8.38613831	      0.46152416	     -7.37941594	     -3.19463032	    -11.31005358	     38.71888582	     97.29459651	     -6.59540318	     -4.74896314	    -16.87350676	     32.04485755	    100.23208370
     -0.52000000	      0.35645835	      5.61550101	     -1.96932394	     -0.51773591	      1.12842812	     -0.21677180	      2.59223603	     -6.75947948	     -4.15053366	     59.21545279	      1.03350462	     -3.69136864	     -9.95396476	     -7.49978934	     16.28330152	      9.56316465	     -0.33112990	     19.22077768	      0.33546586	      3.58820124	    -14.62424784	     -7.49978934	    -10.32275543	     -8.25676615	      0.19279732	     -7.22316200	     -3.11572680	    -11.09962528	     38.10236755	     96.07870229	     -6.42978178	     -4.80349549	    -16.75229090	     31.95729508	     98.94687588
     -0.51000000	      0.73462752	      5.35540627	     -1.71049044	     -0.50732832	      1.12943687	     -0.21655586	      4.18932402	     -6.64218780	     -3.82955189	     61.75463450	      1.07782170	     -2.53913167	    -11.56214271	     -7.49979410	     14.92870220	      9.39382639	     -0.16561708	     18.70686102	      0.32649632	      4.28028325	    -14.57449879	     -7.49979410	    -10.98274926	     -7.95815027	     -0.14361251	     -7.22758960	     -3.04150249	    -11.13530247	     37.98711341	     95.75367045	     -6.26932282	     -4.81543871	    -16.73379599	     32.10744793	     98.58697836
     -0.50000000	      1.12927859	      4.99492414	     -1.36334456	     -0.49701344	      1.13084869	     -0.21676760	      5.90673958	     -6.40403866	     -3.48330318	     64.18446607	      1.12023026	     -1.51265997	    -13.10449379	     -7.49979767	     13.57907467	      9.12434511	      0.06535374	     18.20512872	      0.31773944	      4.92917296	    -14.50197248	     -7.49979767	    -11.62668285	     -7.47547637	     -0.50986666	     -7.23353592	     -3.02711232	    -11.18939577	     37.77982117	     95.49427680	     -6.07277618	     -4.78908338	    -16.70479653	     32.22179600	     98.30320657
     -0.49000000	      1.55167282	      4.64996410	     -1.10238515	     -0.48702147	      1.13287667	     -0.21676118	      7.82154187	     -6.05972232	     -2.82179396	     66.51514950	      1.16090836	     -1.36511205	    -15.45801309	     -7.49980305	     12.30520008	      8.75301163	     -0.17751442	     17.82601525	      0.31112266	      5.56686828	    -14.18339606	     -7.49980305	    -12.27708227	     -7.16122334	     -1.00349917	     -6.77421185	     -2.88281062	    -11.30096615	     36.73884087	     95.73750693	     -5.89407842	     -4.90159064	    -16.70971186	     32.23625439	     98.51025986
     -0.48000000	      1.84786892	      4.20551934	     -0.64406021	     -0.47699780	      1.13537950	     -0.21761855	      9.91307748	     -5.66595712	     -2.30589289	     68.58587252	      1.19704930	     -1.40253021	    -17.15745266	     -7.49981021	     11.22075136	      8.34044786	     -0.10035958	     17.52955085	      0.30594838	      6.14604921	    -13.97465594	     -7.49981021	    -12.75146797	     -6.60408181	     -1.63777060	     -6.54486957	     -2.83437681	    -11.30664015	     36.11039950	     95.97582233	     -5.79650426	     -4.92178934	    -16.82192956	     32.35923280	     98.65174726
